:SAMPLES-PER-SECOND 30
:FRAME-RANGE 1-3549
:FULLY-SPECIFIED
:DEGREES
3439
root  -12.6703 39.4449 -98.0133 20.1438 -82.5 -7.27026
RightUpLeg  -14.7689 -2.78089 -1.12929
RightLeg  14.9506 -4.28142 -1.38249
RightFoot  -12.2162 -0.0246452 7.63867
RightToes  1.218e-010 1.26228e-014 -6.01869e-014
Spine  11.1824 2.49354 7.01667
Spine1  4.14343 3.47791 -2.25681
HEad  -2.29181 12.1077 -3.8462
LeftShoulder1  1.88008 -3.79222 -20.3068
LeftArm  -8.10093 3.62791 -53.0556
LeftForeArm  27.3384 7.58488 -10.6767
LeftHand  -0.0205377 5.40255 7.52473
RightShoulder  2.04864 4.41804 20.2095
RightArm  -32.4659 27.6841 43.1137
RightForeArm  56.8258 -4.82166 -2.07073
RightHand  0.0746722 -5.87354 -20.3713
LeftUpLeg  -35.2429 5.11808 -0.1026
LeftLeg  14.7733 10.6024 3.15596
LeftFoot  -6.80986 0.194143 -3.87379
LeftToes  -1.43952e-010 7.51141e-011 -1.22592e-011
3440
root  -13.8148 39.3188 -97.4321 22.725 -83.0044 -9.63318
RightUpLeg  -13.2099 -2.77277 -1.6741
RightLeg  15.2004 -3.85577 -1.37955
RightFoot  -13.5889 0.0623094 7.87284
RightToes  1.218e-010 1.26228e-014 -6.01869e-014
Spine  10.4711 2.54635 7.06342
Spine1  4.44396 3.65257 -2.56562
HEad  -1.73595 12.3522 -3.82949
LeftShoulder1  1.79735 -3.4314 -20.5096
LeftArm  -8.06387 3.6878 -52.704
LeftForeArm  27.6705 7.60106 -10.8027
LeftHand  -0.0125676 5.54642 7.22148
RightShoulder  2.06368 4.5217 20.0403
RightArm  -32.9033 26.7619 40.8807
RightForeArm  55.713 -4.87683 -1.95353
RightHand  0.301846 -7.05909 -21.5847
LeftUpLeg  -35.6285 2.59527 1.99686
LeftLeg  7.5261 17.7328 2.22929
LeftFoot  -4.14437 0.272101 -3.93077
LeftToes  -1.43952e-010 7.51141e-011 -1.22592e-011
3441
root  -15.0256 39.1164 -96.8036 22.8566 -83.2851 -9.86401
RightUpLeg  -11.3916 -2.74246 -2.61468
RightLeg  16.0637 -3.58169 -1.39909
RightFoot  -15.4125 0.192257 8.34214
RightToes  1.218e-010 1.26228e-014 -6.01869e-014
Spine  9.84988 2.50005 6.5703
Spine1  4.89437 3.73712 -2.82312
HEad  -1.28111 13.0226 -3.43166
LeftShoulder1  1.75082 -3.26674 -20.4665
LeftArm  -8.4596 4.2452 -52.7699
LeftForeArm  27.744 7.58534 -10.7082
LeftHand  -0.0109194 5.57513 7.21613
RightShoulder  2.06653 4.45867 20.3092
RightArm  -33.4762 25.5935 38.7152
RightForeArm  56.0335 -4.85622 -2.01498
RightHand  0.305349 -7.09799 -21.3576
LeftUpLeg  -35.8311 1.71002 2.16805
LeftLeg  2.48343 23.8669 1.77703
LeftFoot  -3.98842 0.22703 -3.16042
LeftToes  -1.43952e-010 7.51141e-011 -1.22592e-011
3442
root  -16.3136 38.7749 -96.1125 23.1165 -83.4706 -10.4678
RightUpLeg  -9.66763 -2.58057 -3.65241
RightLeg  18.077 -3.39991 -1.44879
RightFoot  -17.845 0.414451 9.41032
RightToes  1.218e-010 1.26228e-014 -6.01869e-014
Spine  9.28572 2.62834 6.01994
Spine1  5.16242 3.81011 -2.74843
HEad  -0.959827 14.1014 -2.94354
LeftShoulder1  1.73573 -3.2316 -20.3725
LeftArm  -8.63493 4.70041 -52.9551
LeftForeArm  28.0438 7.57054 -10.6359
LeftHand  -0.0138886 5.51965 7.32456
RightShoulder  2.06762 4.39328 20.5663
RightArm  -33.6004 23.2793 36.7277
RightForeArm  55.885 -4.89885 -1.79573
RightHand  0.295537 -7.07667 -20.9961
LeftUpLeg  -36.1449 1.3195 1.87293
LeftLeg  1.20664 27.9095 1.78944
LeftFoot  -4.17369 0.21917 -3.09907
LeftToes  -1.43952e-010 7.51141e-011 -1.22592e-011
3443
root  -17.711 38.3323 -95.3596 25.3621 -83.5425 -13.4222
RightUpLeg  -8.11492 -2.92057 -4.67169
RightLeg  21.6523 -2.19592 -1.17426
RightFoot  -20.3109 0.729126 11.0271
RightToes  1.218e-010 1.26228e-014 -6.01869e-014
Spine  8.86834 2.81439 5.62244
Spine1  5.25334 3.81711 -2.45271
HEad  -1.00175 15.4281 -2.20134
LeftShoulder1  1.61831 -2.80157 -20.3137
LeftArm  -8.1516 4.61363 -53.0135
LeftForeArm  28.3748 7.58488 -10.7514
LeftHand  0.00169368 5.80076 7.12132
RightShoulder  2.05683 4.19538 21.1685
RightArm  -33.1565 20.4108 34.8968
RightForeArm  55.3944 -5.0014 -1.29056
RightHand  0.272807 -6.98394 -20.6101
LeftUpLeg  -36.3696 1.98034 1.44164
LeftLeg  4.27909 28.0132 2.3486
LeftFoot  -4.04238 0.189999 -2.59812
LeftToes  -1.43952e-010 7.51141e-011 -1.22592e-011
3444
root  -19.1066 37.9872 -94.5495 25.9245 -83.9836 -14.9395
RightUpLeg  -6.85769 -1.96858 -6.33621
RightLeg  26.1784 -0.721335 -0.607773
RightFoot  -21.3886 1.03 13.3206
RightToes  1.218e-010 1.26228e-014 -6.01869e-014
Spine  8.49146 2.93124 4.29501
Spine1  5.73685 3.80797 -2.23464
HEad  -1.01245 17.7897 -1.81226
LeftShoulder1  1.55144 -2.51011 -20.5033
LeftArm  -8.10076 5.30386 -53.1598
LeftForeArm  28.7502 7.28303 -10.6833
LeftHand  -0.0124175 5.53982 7.44381
RightShoulder  2.05944 4.00661 21.9605
RightArm  -32.6206 17.7887 33.2703
RightForeArm  55.8199 -5.06372 -0.852996
RightHand  0.278724 -7.06322 -20.1042
LeftUpLeg  -37.09 2.72518 0.379929
LeftLeg  11.0846 26.9111 4.67145
LeftFoot  -0.776314 -0.0783288 0.898075
LeftToes  -1.43952e-010 7.51141e-011 -1.22592e-011
3445
root  -20.4369 37.6621 -93.6906 16.1203 -83.7809 -5.64127
RightUpLeg  -7.67694 -0.967431 -9.28164
RightLeg  33.8997 1.6656 0.960353
RightFoot  -20.7144 1.36765 18.2663
RightToes  1.218e-010 1.26228e-014 -6.01869e-014
Spine  8.50092 2.55533 1.95275
Spine1  5.48691 3.05622 -1.84598
HEad  -1.45383 20.9734 -1.68592
LeftShoulder1  1.52212 -2.21602 -21.4523
LeftArm  -6.57042 4.84198 -52.2243
LeftForeArm  27.9864 6.29612 -11.2522
LeftHand  -0.0209916 5.39548 7.50194
RightShoulder  2.0915 3.81149 23.2584
RightArm  -32.6491 15.542 31.8664
RightForeArm  56.6042 -5.04446 -0.822227
RightHand  0.307353 -7.26128 -19.7897
LeftUpLeg  -38.3666 4.337 -2.96839
LeftLeg  17.7919 22.6283 7.03132
LeftFoot  2.3229 -0.307744 2.45101
LeftToes  -1.43952e-010 7.51141e-011 -1.22592e-011
3446
root  -21.8008 37.4864 -92.847 8.05408 -81.432 2.1593
RightUpLeg  -9.69364 0.945619 -11.5057
RightLeg  43.1922 2.42168 2.14206
RightFoot  -16.0946 0.84595 22.7567
RightToes  1.218e-010 1.26228e-014 -6.01869e-014
Spine  8.2511 2.13337 0.601962
Spine1  5.04703 2.09664 -0.765359
HEad  -2.01134 23.9855 -2.06733
LeftShoulder1  1.70444 -2.85598 -21.5576
LeftArm  -5.29306 2.18156 -52.7126
LeftForeArm  29.3501 7.47536 -11.6805
LeftHand  -0.0172379 5.4626 7.32841
RightShoulder  1.9558 3.22691 23.8297
RightArm  -33.0241 10.9899 31.606
RightForeArm  56.1376 -5.02125 -1.04198
RightHand  0.363002 -7.53382 -20.2451
LeftUpLeg  -38.5744 7.94043 -8.03539
LeftLeg  21.7813 15.6779 7.10514
LeftFoot  1.58561 -0.553887 4.80152
LeftToes  -1.43952e-010 7.51141e-011 -1.22592e-011
3447
root  -23.147 37.4278 -92.0439 6.06378 -79.4659 3.04907
RightUpLeg  -13.2483 2.54613 -12.1451
RightLeg  54.6097 1.0484 1.18659
RightFoot  -7.28812 -0.707919 18.4452
RightToes  1.218e-010 1.26228e-014 -6.01869e-014
Spine  7.93853 2.12683 0.73679
Spine1  5.7785 2.03631 -0.692391
HEad  -1.75519 29.136 -3.03248
LeftShoulder1  1.71529 -3.1703 -20.3034
LeftArm  -5.38004 -1.06598 -55.3477
LeftForeArm  34.3588 7.64046 -11.6469
LeftHand  0.0199401 6.10678 7.22728
RightShoulder  1.83632 2.83168 23.7986
RightArm  -33.6666 6.11658 31.582
RightForeArm  54.9236 -4.98268 -1.48234
RightHand  0.24481 -6.99149 -18.7089
LeftUpLeg  -37.0109 8.10179 -9.48352
LeftLeg  25.3794 13.4567 7.20304
LeftFoot  -0.403617 -0.777549 8.1321
LeftToes  -1.43952e-010 7.51141e-011 -1.22592e-011
3448
root  -24.489 37.4744 -91.2219 3.7088 -77.4773 3.95392
RightUpLeg  -16.7285 5.05105 -11.3778
RightLeg  63.9909 -0.902423 -2.60692
RightFoot  2.55144 -0.981284 8.18421
RightToes  1.218e-010 1.26228e-014 -6.01869e-014
Spine  8.09025 1.96043 0.893108
Spine1  5.7984 1.81537 -0.501799
HEad  -0.908926 36.1481 -3.96954
LeftShoulder1  1.68261 -3.10178 -20.0599
LeftArm  -3.77713 -3.54104 -56.5145
LeftForeArm  36.745 7.03741 -11.9661
LeftHand  0.0266514 6.18317 7.5102
RightShoulder  1.72811 2.3937 24.2087
RightArm  -34.4062 2.27411 31.5248
RightForeArm  54.6901 -4.89337 -2.03888
RightHand  0.221116 -6.96182 -17.4543
LeftUpLeg  -34.0298 7.13758 -10.2442
LeftLeg  27.9101 12.7324 7.5642
LeftFoot  -3.57691 -0.559995 8.55346
LeftToes  -1.43952e-010 7.51141e-011 -1.22592e-011
3449
root  -25.7934 37.49 -90.477 -0.49176 -74.3173 7.16122
RightUpLeg  -18.5716 6.48301 -11.6789
RightLeg  69.8568 -0.538622 -2.43846
RightFoot  -0.0448404 -0.799925 8.07175
RightToes  1.218e-010 1.26228e-014 -6.01869e-014
Spine  7.80693 1.54473 -0.426348
Spine1  5.78599 1.02206 0.169877
HEad  -0.725607 42.9086 -5.19159
LeftShoulder1  1.7055 -3.10011 -20.4502
LeftArm  -0.952014 -6.04467 -56.7938
LeftForeArm  37.1715 4.65723 -12.7933
LeftHand  0.0215704 6.02783 8.15536
RightShoulder  1.57812 1.77851 24.9447
RightArm  -34.4037 -1.31524 31.2813
RightForeArm  54.2532 -4.89028 -2.1327
RightHand  0.189297 -6.90852 -15.8145
LeftUpLeg  -30.8619 5.88197 -11.8595
LeftLeg  29.3764 11.4551 7.25347
LeftFoot  -6.38918 -0.345178 8.85526
LeftToes  -1.43952e-010 7.51141e-011 -1.22592e-011
3450
root  -27.0543 37.6099 -89.7106 -2.16309 -71.0087 8.03085
RightUpLeg  -20.4634 7.17402 -11.5244
RightLeg  72.7032 -0.3381 -2.19558
RightFoot  -3.20336 -0.59889 8.09786
RightToes  1.218e-010 1.26228e-014 -6.01869e-014
Spine  7.23931 1.15157 -0.910737
Spine1  5.98436 0.441409 0.473732
HEad  -1.66865 47.396 -6.80005
LeftShoulder1  1.73973 -3.20712 -20.5451
LeftArm  1.41923 -8.5404 -57.7095
LeftForeArm  38.2589 1.85899 -13.2275
LeftHand  0.0198112 5.95764 8.63019
RightShoulder  1.39173 1.10165 25.4801
RightArm  -34.3258 -5.12974 31.4153
RightForeArm  52.5936 -4.94351 -2.10819
RightHand  0.17019 -6.88685 -14.6834
LeftUpLeg  -27.1806 4.67505 -13.01
LeftLeg  29.4357 10.1867 6.52372
LeftFoot  -8.5295 -0.169443 8.98052
LeftToes  -1.43952e-010 7.51141e-011 -1.22592e-011
